<?xml version="1.0" encoding="UTF-8"?>
<svg id="Layer_1" data-name="Layer 1" xmlns="http://www.w3.org/2000/svg" viewBox="0 0 566.93 566.93">
  <path d="M440.43,302.7l-32.77-.23c-12.03-.08-20.87-11.19-18.28-22.93,13.56-61.58,22.35-204.4-106.91-204.4-19.64,0-39.27,5.18-58.61,15.44-.69.36-1.36.77-2,1.21l-16.6,11.17c-59.95,40.34-96.26,107.53-97.29,179.78-.13,9.34-.21,17.69-.21,24.37,0,135.03,67.51,184.68,134.8,184.68,114.71,0,117-136.36,200.85-151.65,9.1-1.66,15.8-9.42,15.76-18.66h0c-.05-10.33-8.41-18.7-18.74-18.78ZM324.23,354.48c-1.46,3.74-6.01,5.08-9.97,5.74-13.58,2.28-27.51,2.41-41.14.4-2.63-.39-5.43-.95-7.27-2.87-3.68-3.85-1.29-10.06.45-15.09,2.59-7.44,3.25-15.74.64-23.17-2.61-7.43-8.83-13.78-16.54-15.41-2.99-.63-6.47-.41-8.59,1.79-2.04,2.12-2.2,5.36-2.19,8.3.04,9.56.95,19.89,7.24,27.09,3.34,3.83,8.42,7.76,7.12,12.66-1.15,4.34-6.53,5.74-10.99,6.22-13.65,1.48-27.46,1.58-41.13.3-3.49-.33-7.39-.98-9.42-3.83-2.33-3.26-1.06-7.9,1.23-11.18,2.3-3.28,5.5-5.9,7.43-9.4,2.5-4.55,2.56-9.99,2.56-15.19-.02-28.9-.04-57.79-.05-86.69,0-2.76-.07-5.74-1.75-7.94-2.18-2.86-6.44-3.54-8.52-6.47-2.63-3.72-.44-8.91,2.36-12.5,7.65-9.79,19.9-15.7,32.28-15.95,2.5-.05,5.26-.19,7.41,1.26,2.58,1.75,4.69,3.65,5.72,6.69,1.05,3.09,1,6.42.94,9.68-.5,26.98-1.01,53.96-1.51,80.94.07-.04.15-.09.22-.13,8.03-4.68,15.19-10.85,21.02-18.09.89-1.11,1.78-2.3,2.08-3.7.99-4.56-4.32-7.82-6.18-12.1-1.74-4-.17-8.86,2.86-12,3.03-3.13,7.25-4.82,11.46-5.96,9.89-2.66,20.47-2.72,30.39-.16,3.78.98,7.56,2.38,10.51,4.94,2.95,2.56,4.96,6.47,4.42,10.34-.76,5.47-5.98,9.02-10.71,11.87-13.07,7.87-26.13,15.75-39.2,23.62,7.13,1,14.3,2.31,20.9,5.19,6.6,2.88,12.66,7.47,16.14,13.78,5.44,9.84,4.19,22.81,11.34,31.49,1.98,2.41,4.51,4.33,6.41,6.8,1.91,2.47,3.15,5.8,2.01,8.71Z" fill="#7a084d"/>
</svg>